<svg width="40" height="10" viewBox="0 0 40 10" fill="none" xmlns="http://www.w3.org/2000/svg">
<path d="M3.222 8.994C2.53 8.994 1.998 8.85 1.626 8.562C1.258 8.27 1.038 7.818 0.966 7.206C0.954 7.058 0.986 6.946 1.062 6.87C1.142 6.79 1.254 6.75 1.398 6.75C1.542 6.75 1.648 6.786 1.716 6.858C1.788 6.93 1.834 7.038 1.854 7.182C1.902 7.534 2.028 7.778 2.232 7.914C2.44 8.046 2.77 8.112 3.222 8.112H4.95C5.486 8.112 5.852 8.014 6.048 7.818C6.248 7.618 6.348 7.256 6.348 6.732C6.348 6.2 6.246 5.834 6.042 5.634C5.842 5.43 5.478 5.328 4.95 5.328H3.414C2.674 5.328 2.126 5.15 1.77 4.794C1.418 4.438 1.242 3.892 1.242 3.156C1.242 2.42 1.416 1.876 1.764 1.524C2.116 1.172 2.662 0.995999 3.402 0.995999H4.914C5.562 0.995999 6.06 1.134 6.408 1.41C6.76 1.682 6.972 2.104 7.044 2.676C7.06 2.824 7.028 2.938 6.948 3.018C6.872 3.094 6.76 3.132 6.612 3.132C6.472 3.132 6.366 3.096 6.294 3.024C6.222 2.948 6.178 2.84 6.162 2.7C6.114 2.392 5.994 2.178 5.802 2.058C5.614 1.938 5.318 1.878 4.914 1.878H3.402C2.906 1.878 2.568 1.97 2.388 2.154C2.212 2.334 2.124 2.668 2.124 3.156C2.124 3.644 2.214 3.982 2.394 4.17C2.578 4.354 2.918 4.446 3.414 4.446H4.95C5.726 4.446 6.3 4.632 6.672 5.004C7.044 5.376 7.23 5.952 7.23 6.732C7.23 7.508 7.044 8.08 6.672 8.448C6.3 8.812 5.726 8.994 4.95 8.994H3.222ZM9.84141 9C9.54541 9 9.39741 8.852 9.39741 8.556V1.44C9.39741 1.144 9.54541 0.995999 9.84141 0.995999C10.1334 0.995999 10.2794 1.144 10.2794 1.44V4.488L13.5074 1.164C13.7114 0.948 13.9174 0.944 14.1254 1.152C14.3414 1.356 14.3454 1.564 14.1374 1.776L11.5394 4.452L14.5994 8.25C14.7794 8.482 14.7594 8.688 14.5394 8.868C14.3114 9.056 14.1054 9.036 13.9214 8.808L10.9214 5.094L10.2794 5.754V8.556C10.2794 8.852 10.1334 9 9.84141 9ZM16.7438 9C16.5958 9 16.4838 8.964 16.4078 8.892C16.3358 8.816 16.2998 8.704 16.2998 8.556V1.446C16.2998 1.294 16.3358 1.182 16.4078 1.11C16.4838 1.038 16.5958 1.002 16.7438 1.002C16.8918 1.002 17.0018 1.038 17.0738 1.11C17.1458 1.182 17.1818 1.294 17.1818 1.446V8.556C17.1818 8.704 17.1458 8.816 17.0738 8.892C17.0018 8.964 16.8918 9 16.7438 9ZM20.0367 9C19.7407 9 19.5927 8.852 19.5927 8.556V1.44C19.5927 1.144 19.7407 0.995999 20.0367 0.995999H22.8447C23.5607 0.995999 24.1067 1.186 24.4827 1.566C24.8587 1.942 25.0467 2.488 25.0467 3.204V3.564C25.0467 4.28 24.8587 4.826 24.4827 5.202C24.1067 5.578 23.5607 5.766 22.8447 5.766H20.4747V8.556C20.4747 8.852 20.3287 9 20.0367 9ZM20.4747 4.884H22.8447C23.3167 4.884 23.6547 4.782 23.8587 4.578C24.0627 4.374 24.1647 4.036 24.1647 3.564V3.204C24.1647 2.732 24.0627 2.394 23.8587 2.19C23.6547 1.982 23.3167 1.878 22.8447 1.878H20.4747V4.884ZM29.1292 9C28.9852 9 28.8752 8.964 28.7992 8.892C28.7232 8.816 28.6852 8.706 28.6852 8.562V1.884H26.2852C26.1412 1.884 26.0312 1.848 25.9552 1.776C25.8792 1.7 25.8412 1.59 25.8412 1.446C25.8412 1.302 25.8792 1.192 25.9552 1.116C26.0312 1.04 26.1412 1.002 26.2852 1.002H31.9732C32.1172 1.002 32.2252 1.04 32.2972 1.116C32.3732 1.192 32.4112 1.302 32.4112 1.446C32.4112 1.59 32.3732 1.7 32.2972 1.776C32.2252 1.848 32.1172 1.884 31.9732 1.884H29.5672V8.562C29.5672 8.698 29.5292 8.806 29.4532 8.886C29.3772 8.962 29.2692 9 29.1292 9ZM32.5078 8.958C32.2278 8.846 32.1438 8.652 32.2558 8.376L35.1538 1.344C35.2538 1.112 35.4178 0.995999 35.6458 0.995999H35.6758C35.9038 1.008 36.0598 1.124 36.1438 1.344L39.0718 8.376C39.1838 8.652 39.1038 8.846 38.8318 8.958C38.5558 9.066 38.3638 8.986 38.2558 8.718L37.5538 7.038H33.7558L33.0778 8.718C32.9658 8.99 32.7758 9.07 32.5078 8.958ZM34.1038 6.156H37.1938L35.6278 2.394L34.1038 6.156Z" fill="#F4DA1E"/>
</svg>
